<?xml version="1.0" standalone="no"?>
<!DOCTYPE svg PUBLIC "-//W3C//DTD SVG 20010904//EN"
 "http://www.w3.org/TR/2001/REC-SVG-20010904/DTD/svg10.dtd">
<svg version="1.0" xmlns="http://www.w3.org/2000/svg"
 width="576.000000pt" height="146.000000pt" viewBox="0 0 576.000000 146.000000"
 preserveAspectRatio="xMidYMid meet">

<g transform="translate(0.000000,146.000000) scale(0.100000,-0.100000)"
fill="#000043" stroke="none">
<path d="M218 1119 c-44 -17 -50 -57 -46 -322 3 -237 3 -239 27 -258 32 -26
114 -26 140 0 29 29 32 64 29 313 -3 216 -4 229 -24 248 -25 25 -87 34 -126
19z"/>
<path d="M1230 1118 c-48 -25 -50 -44 -48 -311 3 -248 3 -249 27 -268 32 -26
110 -26 142 0 l24 19 0 261 c0 251 -1 261 -21 281 -26 26 -90 35 -124 18z"/>
<path d="M607 1062 c-22 -24 -21 -32 4 -32 11 0 34 -13 50 -29 35 -36 38 -78
9 -146 -11 -26 -20 -49 -20 -51 0 -10 25 -3 40 11 15 14 18 14 30 0 17 -21 76
-19 90 3 10 16 10 16 20 0 14 -22 73 -24 90 -3 12 14 15 14 30 0 24 -22 77
-19 90 4 5 11 10 67 10 124 0 88 -3 106 -18 120 -25 23 -58 21 -79 -3 -17 -19
-17 -19 -35 0 -24 25 -60 26 -82 1 -17 -19 -18 -19 -37 0 -10 10 -28 19 -39
19 -11 0 -29 -9 -39 -19 -19 -19 -20 -19 -37 0 -22 24 -56 24 -77 1z"/>
<path d="M3143 1050 c-66 -27 -128 -87 -161 -158 -24 -51 -27 -69 -27 -167 0
-124 15 -170 76 -240 104 -118 324 -129 438 -22 39 37 81 120 81 160 0 27 -1
27 -65 27 -54 0 -67 -3 -71 -17 -30 -96 -70 -126 -163 -120 -60 3 -66 6 -102
44 -21 23 -43 59 -49 84 -16 58 -8 165 14 212 57 116 223 130 281 24 20 -37
20 -37 88 -37 l67 0 -6 28 c-18 73 -73 140 -146 178 -52 27 -191 29 -255 4z"/>
<path d="M1670 730 l0 -332 183 4 c180 3 182 3 237 33 101 56 150 152 150 295
0 147 -50 242 -153 294 -57 28 -64 29 -238 34 l-179 5 0 -333z m339 186 c66
-35 96 -109 89 -218 -6 -73 -27 -119 -71 -152 -23 -17 -46 -22 -123 -24 l-94
-4 0 213 0 212 84 -6 c47 -3 98 -13 115 -21z"/>
<path d="M2522 1043 c-11 -21 -242 -630 -242 -638 0 -3 31 -5 69 -5 l70 0 19
52 c11 29 23 63 26 76 7 21 11 22 131 22 l123 0 24 -72 25 -73 71 -3 c40 -2
72 1 72 6 0 5 -54 152 -119 328 l-120 319 -70 3 c-59 2 -71 0 -79 -15z m118
-268 c18 -55 35 -106 38 -112 3 -10 -17 -13 -82 -13 -47 0 -86 2 -86 4 0 21
84 235 90 229 4 -4 22 -53 40 -108z"/>
<path d="M3660 730 l0 -330 65 0 65 0 2 227 3 227 79 -227 79 -228 55 3 55 3
78 223 c42 123 80 226 83 229 3 4 6 -98 6 -225 l0 -232 65 0 65 0 0 330 0 331
-101 -3 -101 -3 -71 -222 c-39 -122 -74 -220 -77 -218 -3 2 -39 103 -80 224
l-75 221 -97 0 -98 0 0 -330z"/>
<path d="M4866 1049 c-66 -16 -96 -53 -106 -129 -5 -44 -6 -45 -42 -48 -37 -3
-38 -4 -38 -43 0 -39 0 -39 40 -39 l40 0 0 -195 0 -195 65 0 65 0 0 195 0 195
45 0 45 0 0 40 0 40 -45 0 c-44 0 -45 1 -45 33 0 42 15 57 57 57 32 0 33 1 33
44 0 37 -4 45 -22 50 -28 7 -43 6 -92 -5z"/>
<path d="M5040 1005 l0 -55 65 0 65 0 0 55 0 55 -65 0 -65 0 0 -55z"/>
<path d="M5308 948 l-3 -73 -37 -3 c-37 -3 -38 -4 -38 -43 0 -39 0 -39 40 -39
l40 0 0 -164 c0 -160 1 -166 24 -193 23 -26 31 -28 110 -32 l86 -3 0 50 0 51
-42 3 -43 3 -3 143 -3 142 46 0 45 0 0 40 0 40 -45 0 -44 0 -3 73 -3 72 -62 3
-62 3 -3 -73z"/>
<path d="M567 983 c-24 -28 -107 -222 -107 -252 0 -20 25 -53 101 -134 l101
-107 173 0 c229 0 219 -8 223 170 l4 132 -22 -12 c-13 -7 -38 -9 -59 -6 -45 7
-47 7 -94 0 -24 -4 -43 -2 -53 6 -11 10 -18 10 -26 2 -15 -15 -84 -16 -93 -2
-4 7 -12 7 -25 0 -24 -13 -80 -13 -80 0 0 5 11 34 24 64 34 77 37 114 10 140
-21 21 -57 20 -77 -1z"/>
<path d="M400 820 c0 -67 4 -110 10 -110 6 0 10 11 10 24 0 13 13 53 29 88 49
111 49 108 -3 108 l-46 0 0 -110z"/>
<path d="M1088 873 c-2 -32 -2 -82 0 -110 4 -51 5 -53 33 -53 l29 0 0 110 0
110 -29 0 c-28 0 -29 -2 -33 -57z"/>
<path d="M5040 635 l0 -235 65 0 65 0 0 235 0 235 -65 0 -65 0 0 -235z"/>
<path d="M655 445 c-33 -32 -32 -68 1 -94 24 -19 40 -21 186 -21 155 0 159 1
183 25 14 13 25 34 25 45 0 11 -11 32 -25 45 -24 24 -27 25 -185 25 -158 0
-161 -1 -185 -25z"/>
</g>
</svg>
